:SAMPLES-PER-SECOND 30
:FULLY-SPECIFIED
:DEGREES
617
root  34.2238 38.1875 -49.6599 37.5027 -0.722229 2.38379
RightUpLeg  -63.3486 -16.1814 15.7976
RightLeg  31.272 -5.51434 -3.84895
RightFoot  -5.46865 0.339473 -7.32223
RightToes  2.91037e-010 0 -3.6325e-017
Spine  71.4158 -4.20037 6.04303
Spine1  12.2217 2.62284 -7.33594
HEad  -39.4002 -5.76275 1.37538
LeftShoulder1  4.07519 -32.1382 -3.23303
LeftArm  -82.7413 -61.0677 37.4473
LeftForeArm  13.8729 -3.53306 2.41293
LeftHand  -0.244104 0.0205437 5.32207
RightShoulder  3.27891 14.7942 10.7007
RightArm  -75.1565 56.1122 -34.3023
RightForeArm  -8.95843 5.56901 1.90606
RightHand  -2.93979 8.84461 -23.9832
LeftUpLeg  -63.6633 18.9843 -21.5781
LeftLeg  24.6252 1.17858 0.927465
LeftFoot  0.700042 -0.419918 3.93851
LeftToes  -1.10052e-010 1.3781e-010 -2.1811e-011
618
root  34.3388 38.2716 -49.902 36.1409 -0.965714 2.13031
RightUpLeg  -61.9943 -16.6389 15.7949
RightLeg  30.5027 -5.0268 -3.43472
RightFoot  -4.72639 0.407363 -7.58436
RightToes  2.91037e-010 0 -3.6325e-017
Spine  71.4854 -4.44443 6.36794
Spine1  11.8144 2.66285 -7.52134
HEad  -38.9402 -5.98007 0.917684
LeftShoulder1  4.59792 -32.7897 -4.59617
LeftArm  -82.4096 -62.0117 38.3667
LeftForeArm  15.4885 -1.85344 1.94806
LeftHand  -0.244104 0.0205437 5.32207
RightShoulder  3.6234 15.7401 11.7002
RightArm  -73.1386 56.9469 -37.6564
RightForeArm  -10.0527 2.80207 3.0232
RightHand  -2.59456 6.81026 -24.6013
LeftUpLeg  -62.2547 19.4436 -21.2072
LeftLeg  23.8405 1.50232 1.06238
LeftFoot  1.12344 -0.506786 4.57429
LeftToes  -1.10052e-010 1.3781e-010 -2.1811e-011
619
root  34.4378 38.3871 -50.1696 34.5858 -1.21703 1.784
RightUpLeg  -60.1986 -17.0495 15.7837
RightLeg  29.2871 -4.60009 -3.02612
RightFoot  -3.87671 0.487432 -7.85301
RightToes  2.91037e-010 0 -3.6325e-017
Spine  71.336 -4.683 6.70447
Spine1  11.2485 2.74581 -7.80707
HEad  -38.4949 -6.13684 0.46058
LeftShoulder1  5.15933 -33.3153 -6.07593
LeftArm  -81.8035 -63.4619 37.6774
LeftForeArm  18.161 -0.117804 1.75648
LeftHand  -0.244104 0.0205437 5.32207
RightShoulder  3.99122 16.3445 13.1138
RightArm  -73.7884 58.7459 -39.8496
RightForeArm  -7.66815 0.184884 3.31431
RightHand  -1.91135 4.10077 -23.321
LeftUpLeg  -60.6494 20.2141 -20.867
LeftLeg  22.8898 1.64107 1.09588
LeftFoot  1.67814 -0.604099 5.2024
LeftToes  -1.10052e-010 1.3781e-010 -2.1811e-011
620
root  34.5094 38.5331 -50.456 32.8368 -1.5816 1.58255
RightUpLeg  -58.0791 -17.5048 15.5923
RightLeg  27.794 -4.18957 -2.62708
RightFoot  -2.96708 0.582791 -8.21208
RightToes  2.91037e-010 0 -3.6325e-017
Spine  70.9879 -4.67543 6.98298
Spine1  10.5877 2.94643 -7.83238
HEad  -37.9789 -6.56286 -0.0909701
LeftShoulder1  5.75177 -33.9053 -7.5683
LeftArm  -78.4172 -65.2438 33.7424
LeftForeArm  22.4006 1.63364 1.40504
LeftHand  -0.244104 0.0205437 5.32207
RightShoulder  4.25799 16.2386 14.7178
RightArm  -74.9917 61.3324 -39.2683
RightForeArm  -3.22942 -1.92293 2.94109
RightHand  -1.44802 2.10284 -22.4262
LeftUpLeg  -58.7108 21.4218 -20.8537
LeftLeg  21.4631 1.15035 0.834932
LeftFoot  2.35529 -0.663733 5.40488
LeftToes  -1.10052e-010 1.3781e-010 -2.1811e-011
621
root  34.5601 38.7 -50.7542 30.7602 -1.96112 1.54251
RightUpLeg  -55.5435 -18.0876 15.1493
RightLeg  26.1876 -3.73371 -2.22656
RightFoot  -2.08836 0.677007 -8.51803
RightToes  2.91037e-010 0 -3.6325e-017
Spine  70.4768 -4.51874 7.28802
Spine1  9.96415 3.23531 -7.63472
HEad  -37.3072 -7.27717 -0.74987
LeftShoulder1  6.42234 -34.6049 -9.17702
LeftArm  -70.5599 -66.6738 25.0859
LeftForeArm  26.0231 3.02499 0.744889
LeftHand  -0.244104 0.0205437 5.32207
RightShoulder  4.51105 15.9691 16.4637
RightArm  -71.6362 63.6158 -34.4363
RightForeArm  -1.46094 -2.76392 3.2287
RightHand  -1.44479 1.73156 -23.427
LeftUpLeg  -56.2762 22.8985 -20.9477
LeftLeg  19.6178 0.392863 0.5053
LeftFoot  3.20776 -0.724899 5.52041
LeftToes  -1.10052e-010 1.3781e-010 -2.1811e-011
622
root  34.5929 38.8744 -51.047 28.3172 -2.24162 1.46428
RightUpLeg  -52.4375 -18.7429 14.5817
RightLeg  24.4086 -3.27174 -1.84709
RightFoot  -1.31882 0.752267 -8.65649
RightToes  2.91037e-010 0 -3.6325e-017
Spine  69.7793 -4.88062 7.68294
Spine1  9.63527 3.33451 -8.41565
HEad  -36.8356 -7.43288 -0.854239
LeftShoulder1  6.69499 -34.5712 -9.95853
LeftArm  -59.2414 -66.8325 11.7534
LeftForeArm  27.1464 3.36162 0.207418
LeftHand  -0.244104 0.0205437 5.32207
RightShoulder  5.00998 16.3017 18.7424
RightArm  -63.1213 64.8071 -25.2955
RightForeArm  -2.56123 -1.97068 4.26784
RightHand  -1.70105 2.56424 -24.715
LeftUpLeg  -53.0956 24.0408 -20.1013
LeftLeg  17.6933 0.406927 0.208906
LeftFoot  4.10938 -0.823421 5.87954
LeftToes  -1.10052e-010 1.3781e-010 -2.1811e-011
623
root  34.6039 39.0507 -51.3131 25.6877 -2.41885 1.31943
RightUpLeg  -48.9259 -19.5396 14.0764
RightLeg  22.3835 -2.76514 -1.4934
RightFoot  -0.691755 0.815324 -8.77158
RightToes  2.91037e-010 0 -3.6325e-017
Spine  68.726 -6.72476 7.80824
Spine1  10.3533 2.48249 -11.773
HEad  -37.6028 -5.26876 0.341044
LeftShoulder1  5.29288 -31.6528 -7.25949
LeftArm  -47.9685 -65.3562 -3.07226
LeftForeArm  25.6775 2.6409 0.0759021
LeftHand  -0.244104 0.0205437 5.32207
RightShoulder  5.66821 17.6596 20.3709
RightArm  -53.8304 65.4938 -12.1876
RightForeArm  -2.86509 -0.102772 4.58612
RightHand  -1.83075 3.23301 -24.5414
LeftUpLeg  -48.6194 23.3783 -16.575
LeftLeg  15.7604 3.10202 -0.446723
LeftFoot  4.94796 -0.922945 6.23251
LeftToes  -1.10052e-010 1.3781e-010 -2.1811e-011
624
root  34.5945 39.2277 -51.5428 23.0802 -2.53197 1.23851
RightUpLeg  -45.2435 -20.3595 13.3769
RightLeg  20.2484 -2.40374 -1.06184
RightFoot  -0.230367 0.865184 -8.88494
RightToes  2.91037e-010 0 -3.6325e-017
Spine  67.2068 -7.78396 7.58226
Spine1  11.6766 1.50433 -12.8789
HEad  -38.9163 -2.91763 0.175272
LeftShoulder1  4.8796 -28.3389 -7.62195
LeftArm  -38.9701 -62.7358 -14.874
LeftForeArm  25.2369 1.5632 -0.254421
LeftHand  -0.244104 0.0205437 5.32207
RightShoulder  5.84196 18.8285 19.6548
RightArm  -43.501 64.7811 3.41232
RightForeArm  -1.83048 1.81472 4.47893
RightHand  -1.75637 3.21134 -23.639
LeftUpLeg  -43.4726 20.6046 -11.3912
LeftLeg  13.6758 8.2298 -1.42516
LeftFoot  5.82027 -0.9825 6.27064
LeftToes  -1.10052e-010 1.3781e-010 -2.1811e-011
625
root  34.5677 39.3951 -51.7363 20.4933 -2.62637 1.19754
RightUpLeg  -41.1411 -20.0832 11.4404
RightLeg  18.2731 -3.44919 -0.386257
RightFoot  0.0217652 0.858462 -8.60445
RightToes  2.91037e-010 0 -3.6325e-017
Spine  65.3727 -7.38808 7.97546
Spine1  12.133 1.70241 -11.7146
HEad  -39.1906 -3.09389 -0.994515
LeftShoulder1  6.17185 -28.5813 -11.9387
LeftArm  -31.4455 -58.0009 -23.5522
LeftForeArm  27.1253 1.03965 -0.787415
LeftHand  -0.244104 0.0205437 5.32207
RightShoulder  6.28234 18.8401 21.7496
RightArm  -32.637 61.3606 13.9291
RightForeArm  -1.30137 3.16761 5.53977
RightHand  -1.72075 3.13538 -23.3748
LeftUpLeg  -38.6027 16.7316 -6.39201
LeftLeg  11.6736 13.882 -2.37704
LeftFoot  6.49105 -0.971958 5.93913
LeftToes  -1.10052e-010 1.3781e-010 -2.1811e-011
626
root  34.5189 39.5465 -51.8903 17.8367 -2.7406 1.1772
RightUpLeg  -36.7872 -18.718 8.79228
RightLeg  16.5723 -5.5632 0.317072
RightFoot  0.00749121 0.757134 -7.60178
RightToes  2.91037e-010 0 -3.6325e-017
Spine  63.4745 -6.76414 8.24085
Spine1  12.3128 1.92077 -10.2897
HEad  -39.0697 -3.42054 -2.38212
LeftShoulder1  7.53972 -28.403 -16.696
LeftArm  -26.2573 -52.3903 -29.2223
LeftForeArm  28.8731 0.997171 -1.30804
LeftHand  -0.244104 0.0205437 5.32207
RightShoulder  6.68862 18.7305 23.8357
RightArm  -24.0622 56.5055 21.1098
RightForeArm  -0.985734 3.925 6.56676
RightHand  -1.77742 3.31443 -23.6412
LeftUpLeg  -34.6044 13.6004 -3.09572
LeftLeg  10.4652 17.7179 -2.73754
LeftFoot  6.65869 -0.860746 5.17243
LeftToes  -1.10052e-010 1.3781e-010 -2.1811e-011
627
root  34.4554 39.6718 -51.988 15.1351 -2.86572 1.27469
RightUpLeg  -32.6947 -17.3402 6.43351
RightLeg  15.3617 -7.56741 0.782019
RightFoot  -0.518846 0.562447 -5.95994
RightToes  2.91037e-010 0 -3.6325e-017
Spine  61.6974 -5.81202 8.37369
Spine1  11.7686 2.15377 -8.40578
HEad  -38.177 -3.85213 -3.79682
LeftShoulder1  9.15111 -28.3217 -22.1963
LeftArm  -22.8588 -45.7915 -32.3238
LeftForeArm  30.2115 1.08779 -1.78831
LeftHand  -0.244104 0.0205437 5.32207
RightShoulder  7.08342 18.3528 26.2648
RightArm  -17.7732 50.1509 25.5735
RightForeArm  -0.801875 4.91596 7.4141
RightHand  -1.82467 3.46668 -23.8479
LeftUpLeg  -31.2677 12.0014 -1.63706
LeftLeg  10.1288 19.401 -2.40021
LeftFoot  5.95573 -0.689017 4.28671
LeftToes  -1.10052e-010 1.3781e-010 -2.1811e-011
628
root  34.3983 39.7727 -52.0121 12.4924 -2.86847 1.54132
RightUpLeg  -28.9692 -16.7423 4.50206
RightLeg  14.6799 -8.83455 1.12613
RightFoot  -1.80643 0.301184 -3.73762
RightToes  2.91037e-010 0 -3.6325e-017
Spine  59.4796 -5.58699 8.34818
Spine1  11.8946 1.84086 -7.70421
HEad  -37.6248 -3.03619 -4.5991
LeftShoulder1  9.72639 -27.2252 -25.2452
LeftArm  -21.0343 -38.9961 -33.9259
LeftForeArm  30.3849 1.13322 -2.01939
LeftHand  -0.244104 0.0205437 5.32207
RightShoulder  7.34573 18.2218 27.7236
RightArm  -14.5215 43.9098 29.5318
RightForeArm  -0.249817 5.67197 7.53585
RightHand  -1.85342 3.60259 -23.8613
LeftUpLeg  -28.3703 11.6463 -1.45947
LeftLeg  10.3821 19.5675 -1.6783
LeftFoot  4.36007 -0.55129 3.81033
LeftToes  -1.10052e-010 1.3781e-010 -2.1811e-011
629
root  34.3556 39.8597 -51.9572 9.96599 -2.68811 1.76033
RightUpLeg  -25.2602 -16.9052 2.82481
RightLeg  14.0819 -9.22662 1.68359
RightFoot  -3.69821 0.0222168 -0.675342
RightToes  2.91037e-010 0 -3.6325e-017
Spine  57.4268 -5.27667 8.34103
Spine1  11.2793 1.52184 -6.71201
HEad  -36.4792 -2.14199 -5.66641
LeftShoulder1  10.3853 -26.2697 -28.6009
LeftArm  -19.7817 -31.915 -33.8854
LeftForeArm  30.293 1.36755 -2.27328
LeftHand  -0.244104 0.0205437 5.32207
RightShoulder  7.45558 17.801 28.9424
RightArm  -12.2182 37.0538 31.863
RightForeArm  0.395434 6.3052 7.65045
RightHand  -1.81702 3.57085 -23.4865
LeftUpLeg  -25.8814 12.309 -1.94983
LeftLeg  11.2205 17.6063 -0.837493
LeftFoot  2.21813 -0.447328 3.64812
LeftToes  -1.10052e-010 1.3781e-010 -2.1811e-011
630
root  34.3153 39.9318 -51.824 7.63094 -2.55611 1.71689
RightUpLeg  -21.3973 -17.0027 1.2993
RightLeg  13.1642 -9.27865 2.54317
RightFoot  -5.6481 -0.197729 3.21098
RightToes  2.91037e-010 0 -3.6325e-017
Spine  54.8433 -4.8613 8.42071
Spine1  11.1986 1.40826 -5.76259
HEad  -35.2952 -1.25161 -6.75561
LeftShoulder1  10.7365 -25.0459 -31.3998
LeftArm  -19.2811 -25.4106 -32.9632
LeftForeArm  30.1175 1.64531 -2.28804
LeftHand  -0.244104 0.0205437 5.32207
RightShoulder  7.3946 17.398 29.3397
RightArm  -10.8308 30.0574 32.7214
RightForeArm  1.47012 6.99805 7.65709
RightHand  -1.58921 2.86015 -22.3149
LeftUpLeg  -23.6878 13.5819 -2.48031
LeftLeg  12.5806 12.9378 -0.157331
LeftFoot  0.0887514 -0.294145 2.92044
LeftToes  -1.10052e-010 1.3781e-010 -2.1811e-011
631
root  34.2767 39.9865 -51.6137 5.55711 -2.77762 1.43173
RightUpLeg  -17.6692 -16.3271 -0.00344086
RightLeg  12.0583 -9.62242 3.44483
RightFoot  -7.13578 -0.312778 7.14179
RightToes  2.91037e-010 0 -3.6325e-017
Spine  51.7728 -4.20373 8.6393
Spine1  11.1805 1.639 -5.03128
HEad  -33.6056 -0.489385 -7.39719
LeftShoulder1  10.9966 -23.6791 -34.2631
LeftArm  -19.2375 -19.3523 -30.7947
LeftForeArm  29.7204 1.8043 -2.19611
LeftHand  -0.244104 0.0205437 5.32207
RightShoulder  7.45449 17.1643 30.0474
RightArm  -10.423 22.4688 31.4122
RightForeArm  2.37253 8.13493 7.48829
RightHand  -1.26058 1.652 -20.7852
LeftUpLeg  -21.441 14.5733 -2.57065
LeftLeg  13.95 7.37537 0.128877
LeftFoot  -1.46493 -0.100803 1.27095
LeftToes  -1.10052e-010 1.3781e-010 -2.1811e-011
